<?xml version="1.0" encoding="utf-8"?>
<!-- Generator: Adobe Illustrator 19.2.1, SVG Export Plug-In . SVG Version: 6.00 Build 0)  -->
<svg version="1.1" xmlns="http://www.w3.org/2000/svg" xmlns:xlink="http://www.w3.org/1999/xlink" x="0px" y="0px"
	 viewBox="0 0 1000 1000" style="enable-background:new 0 0 1000 1000;" xml:space="preserve">
<style type="text/css">
	.st0{fill:#2E4440;}
	.st1{fill:#1E2228;}
	.st2{fill:#00816A;}
	.st3{opacity:0.3;}
	.st4{fill:#00AC94;}
	.st5{fill:#FFFFFF;}
	.st6{fill:#CE4A7D;}
	.st7{display:none;fill:#846035;}
	.st8{fill:#E5AC48;}
	.st9{fill:#335089;}
	.st10{fill:#257767;}
	.st11{fill:#37B59D;}
	.st12{fill:#EF701B;}
	.st13{opacity:0.49;}
</style>
<!-- <g id="Layer_3">
	<rect class="st1" width="1000" height="1000"/>
</g> -->
<g id="Layer_1">
	<g>
		<g>
			<path class="st5" d="M409.6,428.7c1-12.6,5.4-23.8,16.3-31.4c2.1-1.5,7.1-1.1,9.5,0.4c5.5,3.6,10.9,7.8,14.9,12.9
				c2,2.6,2.2,7.9,1.1,11.4c-2.2,7-5.9,13.6-8.8,20.4c-2.4,5.8-3.9,12.5-12.2,12.1c-8.1-0.3-18-8.5-19.5-15.9
				C410.2,435.4,410,432.2,409.6,428.7z"/>
		</g>
		<g>
			<path class="st5" d="M343.5,467.8c-0.6,1.9-1,4.1-1.9,6.1c-0.8,2-1.6,5.2-3,5.5c-6.3,1.6-3.9,6.2-4.4,10
				c-1.1,8.5-2.7,16.9-4.1,25.3c-0.3,1.9-1.6,4.3-0.9,5.6c4.8,9.1-1.4,15.3-4.7,22.6c-14.7-16.1-17.7-36-21.3-55.5
				c-2.4-12.7-2.2-25.5-1.2-38.5c1.4-17.7,3.6-35.1,8.1-52.2c6.3-24.1,14.5-47.7,26.8-69.5c10.7-19.1,20.8-38.6,33.1-56.7
				c15.8-23.2,33.5-45.1,50.3-67.5c1-1.4,2.2-2.7,3.3-4.1c-0.3-0.4-0.6-0.8-0.9-1.3c-4.7,2.9-9.9,5.3-14.1,8.9
				c-12.4,10.5-23.9,22-36.6,32.2c-15,12.1-25,28.3-36.7,43.1c-10.9,13.8-21.6,27.8-32.5,41.6c-5.4,6.8-10.6,13.8-16.7,20
				c-6.7,6.8-15.4,6.1-24.1,4.2c-1.4-0.3-3.5-0.7-4.2-0.1c-4.3,4.4-6.8,0.5-8.1-2.3c-1.8-4.1-3.1-8.7-3.3-13.2
				c-0.9-19.4,3.4-38.1,8-56.7c2.9-11.8,6.1-23.5,9.5-36.2c-1.6,0.9-2.5,1.2-2.9,1.8c-5.8,8.6-12.4,16.8-17.1,25.9
				c-4.9,9.4-8.5,19.6-11.7,29.7c-5.1,16.3-9.9,32.7-13.6,49.3c-2,9.1-1.6,18.8-1.9,28.2c-0.4,13.1-5,18-18.1,18.5
				c-2.6,0.1-5.2-0.2-7.8-0.1c-10.3,0.3-10.7,0.3-10.6-10.1c0.2-24,2.1-47.7,8.7-71.1c5.7-20,11.6-39.7,21.3-58.3
				c13.6-26.1,32.6-47.1,56-64.5c5.4-4,11.1-7.7,16.5-11.7c6.1-4.5,11.9-5.7,19.1-1.7c6.3,3.5,13.2,5.7,18.2,11.3
				c3.5,4,3.3,7.5,1.2,12.5c-3.4,8.1-5.3,16.9-7.5,25.5c-1.2,4.6-1.4,9.1-5.4,12.8c-1.8,1.7-1.7,5.8-1.7,8.8
				c-0.1,9.2-3.4,17.4-7.4,25.5c-0.7,1.4-0.9,3-1.8,6c1.9-1.7,2.7-2.3,3.3-3.1c8.9-10.9,18.3-21.4,26.4-32.9
				c15.3-21.5,34-39.6,54.4-55.9c20.1-16.1,42.6-28.4,66.3-37.8c12.3-4.9,16.6-6,26.7,8c0.6,0.9,1.6,1.9,2.6,2.2
				c5.4,1.9,8.7,7.2,7.8,13.8c1.9-0.4,3.6-0.8,5.7-1.3c0.7,10.6-2.4,19.6-8,27.9c-5.4,8-10.1,16.7-16.3,24
				c-11.6,13.5-24.3,25.9-36,39.3c-6,6.8-10.8,14.6-16,22.2c-5.9,8.8-10.6,18.6-17.7,26.3c-4.3,4.7-8.5,8.9-11.4,14.6
				c-0.6,1.1-3,1.2-4.8,1.9c-1.6,4.6,1.7,12.4-8,12.5c0.3,1.8,0.6,3.9,0.9,6.1c-0.4-0.2-0.7-0.4-1.1-0.6c-3,5.3-6,10.6-9,15.9
				c-0.6-0.3-1.2-0.5-1.7-0.8c0.6,2.9,1.2,5.8,1.8,9c-1.1,0.1-2.2,0.2-3.8,0.3c4,7.8-1.5,13.8-4.5,19.8c-3.6,7.3-5.8,14.5-5.7,22.6
				c0,3.8-1.8,7.6-2.3,11.4c-0.4,3.5,0,7,0.1,10.5c0.1,1.9,1.2,4.5,0.4,5.7c-4.6,6.7-3.9,13.9-2.8,21.3c0.1,0.5-0.2,1.1-0.4,2.8
				c-0.8-1.6-1.1-2.3-1.4-3c-0.4,0.1-0.9,0.2-1.3,0.3C342.2,462.9,342.9,465.3,343.5,467.8z"/>
			<path class="st5" d="M486.5,708c-9.3-6.2-11.3-14.7-13.3-22.9c-6.9-27.8-4.7-55.5,2.2-82.9c5.2-20.8,11.8-41.3,17.7-62
				c0.3-1.1,0.4-2.3,0.8-5.3c-7.2,5.9-13.4,10.6-19.1,15.8c-6.9,6.4-13.5,13.2-19.9,20c-6.3,6.7-12.1,13.9-18.4,20.6
				c-6.3,6.7-12.8,13-19.4,19.4c-2.7,2.7-5.9,4.9-8.8,7.4c-9.1,8.2-19.8,5.8-30.1,3.9c-16.4-2.9-29.5-16.7-30.9-32.4
				c-1-11.8-0.6-23.5,3.7-34.8c11.9-31.3,28.7-59.6,52.5-83.5c0.6-0.6,1.2-1.1,2.4-2.1c5.4,4.2,11.5,7.9,16.1,12.9
				c5.3,5.7,8.9,11.9,4.3,20.8c-6.2,11.9-10.5,24.8-16.1,37.1c-7.7,17.2-11.4,35.4-13.9,53.9c-0.6,4.7-1.9,9.3-3.3,15.5
				c3.3-1,6.3-1.1,8-2.6c7.8-7.3,16-14.5,22.8-22.7c21.7-26,46-48.7,76.1-64.8c1.5-0.8,3.2-2,4-3.4c4.9-9.1,9.6-18.3,15-28.7
				c-15,2-29,3.8-43,5.8c-10.6,1.5-18.4,0.2-22.2-6.7c-3.5-6.4-2-9.2,5-9.9c7.5-0.8,14.9-2.5,22.4-3.4c15.4-2,30.9-3.5,46.3-5.7
				c2.6-0.4,5.8-2.2,7.1-4.3c14.8-24.2,34.9-44,53.3-65.3c3.4-3.9,7.4-7.3,11.5-10.4c1.3-0.9,4.7-1.1,5.6-0.1
				c8.2,8.6,16.3,17.2,23.8,26.4c5,6,3.8,12.9-0.5,18.9c-6.1,8.6-12.5,16.9-18.8,25.3c-0.4,0.6-0.6,1.4-1.4,3.2
				c66.6-0.6,132.4-0.2,197.9,11.1c-5.8,0.7-11.6,1.6-17.4,2c-8.7,0.6-17.5,1.3-26.3,1.3c-13.5,0-27-0.7-40.6-0.9
				c-19.5-0.3-39.1-0.7-58.6-0.5c-18.3,0.3-36.5,1.5-54.7,2.1c-7.4,0.3-11.8,4.1-15.5,10.3c-7.5,12.8-16,25-23.5,37.9
				c-5.6,9.7-10.3,20-15.4,30c-9.1,17.9-15.6,36.8-21.3,56.1c-1.3,4.3-4.3,8.2-6.5,12.3c-0.3,0.6-0.8,1.4-0.7,2.1
				c1.4,11.8-4,21.9-8.5,32.1c-3.7,8.3-7.1,16.6-10.6,25c-0.3,0.7-0.6,1.5-1.1,2.1C499.1,692,492.9,699.8,486.5,708z"/>
			<path class="st5" d="M730.6,271.5c-5.6-0.7-7.2-6.3-12.7-6.8c4-5.7,0.3-7.7-3.6-9.5c-2-0.9-4.7-0.9-6-2.4
				c-4.7-5-9.2-3.3-13.9-0.5c-3.1,1.9-6.2,3.6-9.1,5.7c-22.6,16-34.4,39.3-43.4,64.4c-3,8.4-5.5,16.8-15.5,19.4
				c-0.9,0.2-1.6,1.1-2.5,1.6c-11.4,6.5-22.7,13-34.8,20c-6.2-11.1-12.1-21.6-18.4-32.9c6.6-2.3,11.9-3.8,16.8-6
				c7.7-3.4,15.5-6.9,22.7-11.2c4.3-2.5,5-7.3,2.1-11.6c-2.8-4.1-6.1-7.4-11.9-4.8c-10.5,4.6-21.1,9-32.2,13.7
				c0.5-1.4,0.6-2.7,1.2-3.5c6.6-8.2,13.4-16.2,20-24.4c12.9-16.1,25.8-32.3,38.5-48.6c4.1-5.3,7.6-11.2,11.6-16.6
				c8.9-12,18.2-23.6,26.9-35.7c6.9-9.6,8.4-21,5.7-32c-1.3-5.4-6.8-9.9-10.9-14.4c-12-13.1-8.9-12.2-23.1-2.5
				c-20.7,14.2-36.2,33.6-51,53.4c-11.5,15.3-22.2,31.2-32.9,47.1c-15.2,22.8-28.5,46.5-36.7,72.9c-0.9,3-3.9,5.8-6.5,7.9
				c-9.4,7.6-19.1,14.9-28.7,22.3c-1.1,0.8-2.2,1.6-4.2,2.9c3.5-10.4,7.1-19.4,9.5-28.7c2.7-10,0.1-14.1-9.4-18
				c-1.1-0.5-2.2-1-3.3-1.5c-3.9-1.7-7.5-3.2-8.5,3.3c-0.3,2.1-2.4,3.9-4,6.3c-5.5-3.4-10.6-6.5-15.6-9.7c-5-3.2-10.7-4.6-16-2.4
				c-18.2,7.9-29.2,22.4-35.1,40.9c-3.3,10.5-0.2,21,6.9,26c3.9,2.7,7.8,5.6,12.1,7.6c2.4,1.1,6.5,1.9,8.3,0.7
				c5-3.6,9.6-8,13.8-12.6c3.9-4.3,7.1-9.2,11.4-14.9c0,2.6,0,4,0,5.3c-0.1,12.3,5.7,19.8,17.7,22.4c2.3,0.5,5.7,0.4,7.3-0.9
				c6.3-5.4,12.3-11.2,17.9-17.2c6.3-6.7,12.1-13.9,18.1-20.9c0.6,0.3,1.2,0.7,1.7,1c-0.4,1.7-0.8,3.4-1.2,5.1
				c-4.2,16.2-9.1,32.3-12.6,48.6c-2.9,13.6,0,27,5.7,39.6c2.3,5,6.9,5.6,10.9,1.7c1.5-1.5,2.4-3.6,3.5-5.5c2.9-5,5.5-10.1,8.6-14.9
				c3.3-5.3,7.9-10,10.2-15.6c2.5-6.2,3.1-13.1,4.5-19.7c1.4-6.7,2.9-13.4,4.4-20.2c2.6,3,3.6,6.2,5.3,9c2.6,4.4,4.9,9.6,8.8,12.5
				c7.5,5.5,15.8,9.9,24.1,14.2c2,1,5.3,0.2,7.8-0.5c2.8-0.8,5.3-2.5,7.9-3.8c3.5-1.8,7.4-3.2,10.6-5.4c8.5-6,16.7-12.3,25.6-18.8
				c1.5,5.9,2.5,10.8,4.1,15.5c4.6,13.2,8.8,26.8,24,32.3c3.8,1.3,7.4,3,11.2,4.3c11.3,4,19.6-2.4,27.6-8.6c1.9-1.5,1.4-5.9,2.1-9
				c1-4.3-0.1-5.6-4.9-4.9c-11.1,1.5-17.3-2.6-17.9-12.4c-0.7-11.6-0.2-23.3,0-34.9c0.1-3.6,2-5.5,6.2-5.5
				c5.3-0.1,11.6,0.4,15.8-2.1c14.9-8.9,28.7-19.3,33.7-37.4C738.1,283.9,735.3,272,730.6,271.5z M424.8,348.7
				c0-15.1,22.4-42.2,31.8-38.8C445.8,323,435.3,335.9,424.8,348.7z M685,315.9c6.3-14.2,13.4-27.1,25.6-38.1
				C712.7,289.2,698.7,309.2,685,315.9z"/>
		</g>
	</g>
	<g>
		<path class="st5" d="M262.1,863.8v4.9h-67.9V754.9h4.9v108.9H262.1z"/>
		<path class="st5" d="M377.9,863.8h59.8L403.3,769L367,868.6h-5.2l41.4-113.9l41.4,113.9h-66.8V863.8z"/>
		<path class="st6" d="M377.9,863.8h59.8L403.3,769L367,868.6L377.9,863.8z"/>
		<path class="st5" d="M570.4,868.6h-26V754.9h19.8c14.3,0,25.1,2.6,32.3,7.9c7.3,5.3,10.9,12.6,10.9,22.2
			c0,10.8-4.5,18.8-13.6,23.9c13.2,5,19.8,14.4,19.8,28.1c0,9.7-3.6,17.5-10.7,23.2S584.9,868.6,570.4,868.6z M570.4,863.8
			c5.1,0,9.7-0.4,14-1.2s8.3-2.2,12.1-4.1c3.8-1.9,6.8-4.7,9-8.4c2.2-3.7,3.2-8.1,3.2-13.2c0-11.6-5.6-19.4-16.7-23.6l-9.7-3.6
			l9.1-5.2c7.5-4.1,11.2-10.7,11.2-19.7c0-16.8-12.8-25.2-38.3-25.2h-14.9v104H570.4z"/>
		<path class="st12" d="M759.4,791l17.5-13.2c-2.3-7.3-5.6-12.3-9.8-15.3c-4.3-2.9-9.6-4.4-15.8-4.4c-4.3,0-8,0.3-11,0.8
			c-3,0.5-6,1.6-8.9,3.2c-3,1.6-5.2,4.1-6.7,7.6c-1.5,3.5-2.3,7.9-2.3,13.3c0,4.8,2.2,9,6.6,12.7c4.4,3.7,7.5,5.9,13.8,8.5"/>
		<path class="st9" d="M570.4,863.8c5.1,0,9.7-0.4,14-1.2s8.3-2.2,12.1-4.1c3.8-1.9,6.8-4.7,9-8.4c2.2-3.7,3.2-8.1,3.2-13.2
			c0-11.6-5.6-19.4-16.7-23.6l-9.7-3.6l9.1-5.2c7.5-4.1,11.2-10.7,11.2-19.7c0-16.8-12.8-25.2-38.3-25.2h-14.9v104H570.4z"/>
		<polygon class="st10" points="262.1,863.8 262.1,754.9 199,754.9 		"/>
		<polygon class="st11" points="262.1,863.8 199,863.8 199,754.9 		"/>
		<path class="st5" d="M717.5,783c0-10.5,2.7-18.1,8-22.7c5.3-4.7,13.9-7,25.8-7c8.3,0,15.1,2.2,20.1,6.5c5.1,4.3,8.8,10.9,11,19.8
			L767.3,791h-8l17.5-13.2c-2.3-7.3-5.6-12.3-9.8-15.3c-4.3-2.9-9.6-4.4-15.8-4.4c-4.3,0-8,0.3-11,0.8c-3,0.5-6,1.6-8.9,3.2
			c-3,1.6-5.2,4.1-6.7,7.6c-1.5,3.5-2.3,7.9-2.3,13.3c0,4.8,2.2,9,6.6,12.7c4.4,3.7,9.7,6.8,16,9.4c6.3,2.6,12.6,5.3,18.9,8
			c6.3,2.7,11.7,6.2,16.1,10.4s6.6,9.1,6.6,14.6c0,10.8-2.7,18.9-8,24.2c-5.4,5.3-14.5,8-27.5,8c-10.6,0-19-2.1-25-6.4
			c-6.1-4.3-10.2-10.9-12.5-19.9l4.5-2c2.2,8.8,5.9,14.9,11.1,18.3c5.3,3.4,12.5,5.1,21.9,5.1c10.4,0,18.1-2,23.2-6
			c5-4,7.6-11.1,7.6-21.3c0-4.8-2.2-9-6.6-12.7c-4.4-3.7-9.7-6.8-16.1-9.4c-6.3-2.6-12.6-5.3-18.9-8c-6.3-2.7-11.6-6.2-16-10.4
			C719.6,793.4,717.5,788.5,717.5,783z"/>
	</g>
</g>
</svg>
